<?xml version="1.0" encoding="UTF-8" standalone="no"?>
<svg
   width="448"
   height="448"
   viewBox="0 0 448 448"
   fill="none"
   version="1.1"
   id="svg7"
   xmlns="http://www.w3.org/2000/svg"
   xmlns:svg="http://www.w3.org/2000/svg">
  <!-- Palette -->
  <!-- Primary purple: #6750A4 -->
  <!-- Lavender highlight: #EADDFF -->
  <!-- Soft surface: #FEF7FF -->
  <!-- Accent plum: #21005D -->
  <!-- Tertiary tint: #D0BCFF -->
  <!-- Rounded-square tile (background shape; outside remains transparent) -->
  <rect
     x="0"
     y="0"
     width="448"
     height="448"
     rx="96"
     fill="#6750a4"
     id="rect1" />
  <!-- Inner rounded panel split into two spaces -->
  <clipPath
     id="panelClip">
    <rect
       x="96"
       y="96"
       width="320"
       height="320"
       rx="48"
       id="rect2" />
  </clipPath>
  <g
     clip-path="url(#panelClip)"
     id="g4"
     transform="translate(-32,-32)">
    <rect
       x="96"
       y="96"
       width="160"
       height="320"
       fill="#eaddff"
       id="rect3" />
    <rect
       x="256"
       y="96"
       width="160"
       height="320"
       fill="#fef7ff"
       id="rect4" />
  </g>
  <!-- Curved transfer arrow with subtle outline for legibility at small sizes -->
  <!-- Outline -->
  <!-- Shaft -->
  <!-- Arrowhead (two-layer for contrast) -->
  <g
     id="g8"
     transform="matrix(0.5949696,0,0,0.5949696,-163.16546,148.42213)">
    <path
       fill="#6750A4"
       d="m 656.48745,141.83238 c -1.36667,0.0733 -2.72667,0.21 -4.08,0.41 -25.52667,3.87333 -49.29,12.91333 -71.29,27.12 -31.04,20.04 -52.86,50.67 -62.78,86 -3,10.69333 -5.33333,18.36 -7,23 -0.82,2.27333 -2.18667,4.74 -4.1,7.4 -4.97,6.89 -14.38,6.77 -20.78,1.95 -0.23909,-0.1793 -0.45746,-0.39096 -0.65,-0.63 -4.06,-5.10667 -7.07,-10.77333 -9.03,-17 -7.43,-23.63 -7.12,-49.6 -2.32,-73.31 8.97,-44.34 32.01,-83.09 65.38,-113.139999 32.53,-29.29 72.76,-45.82 116.58,-48.7 l 41.41,0.09 c 0.33817,-5.8e-4 0.62609,-0.24615 0.68,-0.58 1.60667,-10.23333 3.32667,-21.62667 5.16,-34.1799996 0.73333,-5.0400004 3.42,-8.7000004 8.06,-10.9800004 5.6,-2.75 11.31,-0.83 15.73,3.41 28.92667,27.74667 60.61333,58.22667 95.06,91.44 3.74,3.60667 6.11,7.10333 7.11,10.49 3.46,11.679999 -4.4,17.339999 -13.03,23.029999 -21.94667,14.50667 -57.39333,38.22 -106.34,71.14 -5.36,3.61 -11.35,5.57 -17.34,3.01 -7.29,-3.11 -8.9,-9.2 -8.63,-16.7 0.44667,-12.65333 1.03,-24.31667 1.75,-34.99 0.0188,-0.32117 -0.2453,-0.58523 -0.56,-0.56 -4.40667,0.35333 -8.87667,0.56667 -13.41,0.64 -2.95333,0.0467 -8.14667,0.59333 -15.58,1.64 z"
       id="path13-9" />
    <path
       fill="#d0bcff"
       d="m 496.17745,271.31238 a 0.61,0.61 0 0 1 -1.16,0.05 q -6.94,-18.64 -6.81,-38.32 c 0.34,-51.55 22.17,-99.39 60.04,-134.269999 30.94,-28.5 71.07,-44.58 112.82,-46.55 q 7.19,-0.34 25.66,-0.04 5.87,0.1 9.15,0.43 c 6.09,0.62 12.86,1.39 16.61,-3.09 q 1.56,-1.86 2.46,-7.93 2.41,-16.25 4.72,-32.2399996 a 0.26,0.26 0 0 1 0.44,-0.15 l 91.94,89.4799996 a 0.33,0.33 0 0 1 -0.05,0.51 l -110.28,73.889999 a 0.38,0.38 0 0 1 -0.59,-0.36 q 0.95,-8.05 1.11,-14.93 c 0.21,-8.85 1.45,-17.97 1.1,-26.74 -0.37,-9.35 -10.16,-9.21 -17.26,-8.91 q -14.51,0.62 -23.32,1.4 c -47.3,4.21 -92.83,25.36 -124.09,60.48 q -24.53,27.56 -36.06,64.87 -2.96,9.58 -6.43,22.42 z"
       id="path14" />
  </g>
</svg>
